{
  "asset": {
    "generator": "Khronos glTF Blender I/O v5.0.21",
    "version": "2.0"
  },
  "extensionsUsed": [
    "KHR_materials_unlit"
  ],
  "scene": 0,
  "scenes": [
    {
      "name": "Scene",
      "nodes": [
        0,
        17
      ]
    }
  ],
  "nodes": [
    {
      "mesh": 0,
      "name": "Cube",
      "rotation": [
        0,
        -0.6727286577224731,
        0,
        0.73988938331604
      ],
      "translation": [
        4.060972213745117,
        0,
        -1.5062246322631836
      ]
    },
    {
      "mesh": 1,
      "name": "Object_10"
    },
    {
      "mesh": 2,
      "name": "Object_11"
    },
    {
      "mesh": 3,
      "name": "Object_12"
    },
    {
      "mesh": 4,
      "name": "Object_13"
    },
    {
      "mesh": 5,
      "name": "Object_14"
    },
    {
      "mesh": 6,
      "name": "Object_15"
    },
    {
      "mesh": 7,
      "name": "Object_16"
    },
    {
      "mesh": 8,
      "name": "Object_2"
    },
    {
      "mesh": 9,
      "name": "Object_3"
    },
    {
      "mesh": 10,
      "name": "Object_4"
    },
    {
      "mesh": 11,
      "name": "Object_5"
    },
    {
      "mesh": 12,
      "name": "Object_6"
    },
    {
      "mesh": 13,
      "name": "Object_7"
    },
    {
      "mesh": 14,
      "name": "Object_8"
    },
    {
      "mesh": 15,
      "name": "Object_9"
    },
    {
      "children": [
        1,
        2,
        3,
        4,
        5,
        6,
        7,
        8,
        9,
        10,
        11,
        12,
        13,
        14,
        15
      ],
      "name": "Sigiriya_900k.obj.cleaner.materialmerger.gles"
    },
    {
      "children": [
        16
      ],
      "name": "Sketchfab_model",
      "rotation": [
        0.9996429085731506,
        -0.006135612726211548,
        -0.02329101786017418,
        0.011573074385523796
      ],
      "scale": [
        1.069916009902954,
        1.000839114189148,
        1.1539340019226074
      ],
      "translation": [
        4.060972213745117,
        0,
        -1.5062246322631836
      ]
    }
  ],
  "materials": [
    {
      "doubleSided": true,
      "name": "Material",
      "pbrMetallicRoughness": {
        "baseColorFactor": [
          0.800000011920929,
          0.800000011920929,
          0.800000011920929,
          1
        ],
        "metallicFactor": 0,
        "roughnessFactor": 0.5
      }
    },
    {
      "doubleSided": true,
      "extensions": {
        "KHR_materials_unlit": {}
      },
      "name": "Sigiriya_900k_Material_u1_v1",
      "pbrMetallicRoughness": {
        "baseColorTexture": {
          "index": 0
        },
        "metallicFactor": 0,
        "roughnessFactor": 0.9
      }
    }
  ],
  "meshes": [
    {
      "name": "Cube",
      "primitives": [
        {
          "attributes": {
            "POSITION": 0,
            "NORMAL": 1,
            "TEXCOORD_0": 2
          },
          "indices": 3,
          "material": 0
        }
      ]
    },
    {
      "name": "Object_8",
      "primitives": [
        {
          "attributes": {
            "POSITION": 4,
            "NORMAL": 5,
            "TEXCOORD_0": 6
          },
          "indices": 7,
          "material": 1
        }
      ]
    },
    {
      "name": "Object_9",
      "primitives": [
        {
          "attributes": {
            "POSITION": 8,
            "NORMAL": 9,
            "TEXCOORD_0": 10
          },
          "indices": 11,
          "material": 1
        }
      ]
    },
    {
      "name": "Object_10",
      "primitives": [
        {
          "attributes": {
            "POSITION": 12,
            "NORMAL": 13,
            "TEXCOORD_0": 14
          },
          "indices": 15,
          "material": 1
        }
      ]
    },
    {
      "name": "Object_11",
      "primitives": [
        {
          "attributes": {
            "POSITION": 16,
            "NORMAL": 17,
            "TEXCOORD_0": 18
          },
          "indices": 19,
          "material": 1
        }
      ]
    },
    {
      "name": "Object_12",
      "primitives": [
        {
          "attributes": {
            "POSITION": 20,
            "NORMAL": 21,
            "TEXCOORD_0": 22
          },
          "indices": 23,
          "material": 1
        }
      ]
    },
    {
      "name": "Object_13",
      "primitives": [
        {
          "attributes": {
            "POSITION": 24,
            "NORMAL": 25,
            "TEXCOORD_0": 26
          },
          "indices": 27,
          "material": 1
        }
      ]
    },
    {
      "name": "Object_14",
      "primitives": [
        {
          "attributes": {
            "POSITION": 28,
            "NORMAL": 29,
            "TEXCOORD_0": 30
          },
          "indices": 31,
          "material": 1
        }
      ]
    },
    {
      "name": "Object_0",
      "primitives": [
        {
          "attributes": {
            "POSITION": 32,
            "NORMAL": 33,
            "TEXCOORD_0": 34
          },
          "indices": 35,
          "material": 1
        }
      ]
    },
    {
      "name": "Object_1",
      "primitives": [
        {
          "attributes": {
            "POSITION": 36,
            "NORMAL": 37,
            "TEXCOORD_0": 38
          },
          "indices": 39,
          "material": 1
        }
      ]
    },
    {
      "name": "Object_2",
      "primitives": [
        {
          "attributes": {
            "POSITION": 40,
            "NORMAL": 41,
            "TEXCOORD_0": 42
          },
          "indices": 43,
          "material": 1
        }
      ]
    },
    {
      "name": "Object_3",
      "primitives": [
        {
          "attributes": {
            "POSITION": 44,
            "NORMAL": 45,
            "TEXCOORD_0": 46
          },
          "indices": 47,
          "material": 1
        }
      ]
    },
    {
      "name": "Object_4",
      "primitives": [
        {
          "attributes": {
            "POSITION": 48,
            "NORMAL": 49,
            "TEXCOORD_0": 50
          },
          "indices": 51,
          "material": 1
        }
      ]
    },
    {
      "name": "Object_5",
      "primitives": [
        {
          "attributes": {
            "POSITION": 52,
            "NORMAL": 53,
            "TEXCOORD_0": 54
          },
          "indices": 55,
          "material": 1
        }
      ]
    },
    {
      "name": "Object_6",
      "primitives": [
        {
          "attributes": {
            "POSITION": 56,
            "NORMAL": 57,
            "TEXCOORD_0": 58
          },
          "indices": 59,
          "material": 1
        }
      ]
    },
    {
      "name": "Object_7",
      "primitives": [
        {
          "attributes": {
            "POSITION": 60,
            "NORMAL": 61,
            "TEXCOORD_0": 62
          },
          "indices": 63,
          "material": 1
        }
      ]
    }
  ],
  "textures": [
    {
      "sampler": 0,
      "source": 0
    }
  ],
  "images": [
    {
      "name": "Image_0",
      "uri": "test_img0.jpg"
    }
  ],
  "accessors": [
    {
      "bufferView": 0,
      "componentType": 5126,
      "count": 24,
      "max": [
        1,
        1,
        1
      ],
      "min": [
        -1,
        -1,
        -1
      ],
      "type": "VEC3"
    },
    {
      "bufferView": 1,
      "componentType": 5126,
      "count": 24,
      "type": "VEC3"
    },
    {
      "bufferView": 2,
      "componentType": 5126,
      "count": 24,
      "type": "VEC2"
    },
    {
      "bufferView": 3,
      "componentType": 5123,
      "count": 36,
      "type": "SCALAR"
    },
    {
      "bufferView": 4,
      "componentType": 5126,
      "count": 65671,
      "max": [
        16.29883575439453,
        -1.6757440567016602,
        23.30333137512207
      ],
      "min": [
        -16.142183303833008,
        -17.97834014892578,
        -23.82413101196289
      ],
      "type": "VEC3"
    },
    {
      "bufferView": 5,
      "componentType": 5126,
      "count": 65671,
      "type": "VEC3"
    },
    {
      "bufferView": 6,
      "componentType": 5126,
      "count": 65671,
      "type": "VEC2"
    },
    {
      "bufferView": 7,
      "componentType": 5125,
      "count": 178275,
      "type": "SCALAR"
    },
    {
      "bufferView": 8,
      "componentType": 5126,
      "count": 65687,
      "max": [
        16.295804977416992,
        -1.0475577116012573,
        23.30333137512207
      ],
      "min": [
        -16.141239166259766,
        -17.916332244873047,
        -23.828426361083984
      ],
      "type": "VEC3"
    },
    {
      "bufferView": 9,
      "componentType": 5126,
      "count": 65687,
      "type": "VEC3"
    },
    {
      "bufferView": 10,
      "componentType": 5126,
      "count": 65687,
      "type": "VEC2"
    },
    {
      "bufferView": 11,
      "componentType": 5125,
      "count": 156045,
      "type": "SCALAR"
    },
    {
      "bufferView": 12,
      "componentType": 5126,
      "count": 65668,
      "max": [
        16.29437828063965,
        -1.7396018505096436,
        23.305007934570312
      ],
      "min": [
        -16.142183303833008,
        -17.96587562561035,
        -23.821910858154297
      ],
      "type": "VEC3"
    },
    {
      "bufferView": 13,
      "componentType": 5126,
      "count": 65668,
      "type": "VEC3"
    },
    {
      "bufferView": 14,
      "componentType": 5126,
      "count": 65668,
      "type": "VEC2"
    },
    {
      "bufferView": 15,
      "componentType": 5125,
      "count": 134190,
      "type": "SCALAR"
    },
    {
      "bufferView": 16,
      "componentType": 5126,
      "count": 65639,
      "max": [
        16.295804977416992,
        -1.0475577116012573,
        23.305606842041016
      ],
      "min": [
        -16.13874626159668,
        -17.983488082885742,
        -23.828426361083984
      ],
      "type": "VEC3"
    },
    {
      "bufferView": 17,
      "componentType": 5126,
      "count": 65639,
      "type": "VEC3"
    },
    {
      "bufferView": 18,
      "componentType": 5126,
      "count": 65639,
      "type": "VEC2"
    },
    {
      "bufferView": 19,
      "componentType": 5125,
      "count": 115929,
      "type": "SCALAR"
    },
    {
      "bufferView": 20,
      "componentType": 5126,
      "count": 65654,
      "max": [
        16.295804977416992,
        -1.0475577116012573,
        23.305927276611328
      ],
      "min": [
        -16.141197204589844,
        -17.983488082885742,
        -23.828426361083984
      ],
      "type": "VEC3"
    },
    {
      "bufferView": 21,
      "componentType": 5126,
      "count": 65654,
      "type": "VEC3"
    },
    {
      "bufferView": 22,
      "componentType": 5126,
      "count": 65654,
      "type": "VEC2"
    },
    {
      "bufferView": 23,
      "componentType": 5125,
      "count": 97101,
      "type": "SCALAR"
    },
    {
      "bufferView": 24,
      "componentType": 5126,
      "count": 65682,
      "max": [
        16.29437828063965,
        -1.0475577116012573,
        23.305606842041016
      ],
      "min": [
        -16.140178680419922,
        -17.963619232177734,
        -23.828426361083984
      ],
      "type": "VEC3"
    },
    {
      "bufferView": 25,
      "componentType": 5126,
      "count": 65682,
      "type": "VEC3"
    },
    {
      "bufferView": 26,
      "componentType": 5126,
      "count": 65682,
      "type": "VEC2"
    },
    {
      "bufferView": 27,
      "componentType": 5125,
      "count": 74733,
      "type": "SCALAR"
    },
    {
      "bufferView": 28,
      "componentType": 5126,
      "count": 16871,
      "max": [
        16.291404724121094,
        -1.739436149597168,
        23.29950523376465
      ],
      "min": [
        -16.129117965698242,
        -17.983488082885742,
        -23.828426361083984
      ],
      "type": "VEC3"
    },
    {
      "bufferView": 29,
      "componentType": 5126,
      "count": 16871,
      "type": "VEC3"
    },
    {
      "bufferView": 30,
      "componentType": 5126,
      "count": 16871,
      "type": "VEC2"
    },
    {
      "bufferView": 31,
      "componentType": 5123,
      "count": 17955,
      "type": "SCALAR"
    },
    {
      "bufferView": 32,
      "componentType": 5126,
      "count": 65799,
      "max": [
        16.282249450683594,
        -1.966694712638855,
        23.301111221313477
      ],
      "min": [
        -16.1333065032959,
        -17.64805030822754,
        -23.818082809448242
      ],
      "type": "VEC3"
    },
    {
      "bufferView": 33,
      "componentType": 5126,
      "count": 65799,
      "type": "VEC3"
    },
    {
      "bufferView": 34,
      "componentType": 5126,
      "count": 65799,
      "type": "VEC2"
    },
    {
      "bufferView": 35,
      "componentType": 5125,
      "count": 267177,
      "type": "SCALAR"
    },
    {
      "bufferView": 36,
      "componentType": 5126,
      "count": 65756,
      "max": [
        16.300296783447266,
        -1.6466469764709473,
        23.30333137512207
      ],
      "min": [
        -16.132057189941406,
        -17.644479751586914,
        -23.82389259338379
      ],
      "type": "VEC3"
    },
    {
      "bufferView": 37,
      "componentType": 5126,
      "count": 65756,
      "type": "VEC3"
    },
    {
      "bufferView": 38,
      "componentType": 5126,
      "count": 65756,
      "type": "VEC2"
    },
    {
      "bufferView": 39,
      "componentType": 5125,
      "count": 259926,
      "type": "SCALAR"
    },
    {
      "bufferView": 40,
      "componentType": 5126,
      "count": 65708,
      "max": [
        16.292461395263672,
        -1.6466469764709473,
        23.299869537353516
      ],
      "min": [
        -16.124778747558594,
        -17.97834014892578,
        -23.82402801513672
      ],
      "type": "VEC3"
    },
    {
      "bufferView": 41,
      "componentType": 5126,
      "count": 65708,
      "type": "VEC3"
    },
    {
      "bufferView": 42,
      "componentType": 5126,
      "count": 65708,
      "type": "VEC2"
    },
    {
      "bufferView": 43,
      "componentType": 5125,
      "count": 252498,
      "type": "SCALAR"
    },
    {
      "bufferView": 44,
      "componentType": 5126,
      "count": 65715,
      "max": [
        16.293071746826172,
        -1.907198429107666,
        23.297229766845703
      ],
      "min": [
        -16.136276245117188,
        -17.73518180847168,
        -23.819217681884766
      ],
      "type": "VEC3"
    },
    {
      "bufferView": 45,
      "componentType": 5126,
      "count": 65715,
      "type": "VEC3"
    },
    {
      "bufferView": 46,
      "componentType": 5126,
      "count": 65715,
      "type": "VEC2"
    },
    {
      "bufferView": 47,
      "componentType": 5125,
      "count": 246378,
      "type": "SCALAR"
    },
    {
      "bufferView": 48,
      "componentType": 5126,
      "count": 65717,
      "max": [
        16.295331954956055,
        -1.4499828815460205,
        23.305604934692383
      ],
      "min": [
        -16.136276245117188,
        -17.984804153442383,
        -23.828426361083984
      ],
      "type": "VEC3"
    },
    {
      "bufferView": 49,
      "componentType": 5126,
      "count": 65717,
      "type": "VEC3"
    },
    {
      "bufferView": 50,
      "componentType": 5126,
      "count": 65717,
      "type": "VEC2"
    },
    {
      "bufferView": 51,
      "componentType": 5125,
      "count": 235350,
      "type": "SCALAR"
    },
    {
      "bufferView": 52,
      "componentType": 5126,
      "count": 65672,
      "max": [
        16.292461395263672,
        -1.0475577116012573,
        23.305606842041016
      ],
      "min": [
        -16.142183303833008,
        -17.983488082885742,
        -23.825653076171875
      ],
      "type": "VEC3"
    },
    {
      "bufferView": 53,
      "componentType": 5126,
      "count": 65672,
      "type": "VEC3"
    },
    {
      "bufferView": 54,
      "componentType": 5126,
      "count": 65672,
      "type": "VEC2"
    },
    {
      "bufferView": 55,
      "componentType": 5125,
      "count": 223527,
      "type": "SCALAR"
    },
    {
      "bufferView": 56,
      "componentType": 5126,
      "count": 65682,
      "max": [
        16.295331954956055,
        -1.4499828815460205,
        23.305604934692383
      ],
      "min": [
        -16.1373233795166,
        -17.933673858642578,
        -23.824718475341797
      ],
      "type": "VEC3"
    },
    {
      "bufferView": 57,
      "componentType": 5126,
      "count": 65682,
      "type": "VEC3"
    },
    {
      "bufferView": 58,
      "componentType": 5126,
      "count": 65682,
      "type": "VEC2"
    },
    {
      "bufferView": 59,
      "componentType": 5125,
      "count": 210894,
      "type": "SCALAR"
    },
    {
      "bufferView": 60,
      "componentType": 5126,
      "count": 65673,
      "max": [
        16.298625946044922,
        -1.0475577116012573,
        23.305007934570312
      ],
      "min": [
        -16.138229370117188,
        -17.898317337036133,
        -23.827499389648438
      ],
      "type": "VEC3"
    },
    {
      "bufferView": 61,
      "componentType": 5126,
      "count": 65673,
      "type": "VEC3"
    },
    {
      "bufferView": 62,
      "componentType": 5126,
      "count": 65673,
      "type": "VEC2"
    },
    {
      "bufferView": 63,
      "componentType": 5125,
      "count": 197016,
      "type": "SCALAR"
    }
  ],
  "bufferViews": [
    {
      "buffer": 0,
      "byteLength": 288,
      "byteOffset": 0,
      "target": 34962
    },
    {
      "buffer": 0,
      "byteLength": 288,
      "byteOffset": 288,
      "target": 34962
    },
    {
      "buffer": 0,
      "byteLength": 192,
      "byteOffset": 576,
      "target": 34962
    },
    {
      "buffer": 0,
      "byteLength": 72,
      "byteOffset": 768,
      "target": 34963
    },
    {
      "buffer": 0,
      "byteLength": 788052,
      "byteOffset": 840,
      "target": 34962
    },
    {
      "buffer": 0,
      "byteLength": 788052,
      "byteOffset": 788892,
      "target": 34962
    },
    {
      "buffer": 0,
      "byteLength": 525368,
      "byteOffset": 1576944,
      "target": 34962
    },
    {
      "buffer": 0,
      "byteLength": 713100,
      "byteOffset": 2102312,
      "target": 34963
    },
    {
      "buffer": 0,
      "byteLength": 788244,
      "byteOffset": 2815412,
      "target": 34962
    },
    {
      "buffer": 0,
      "byteLength": 788244,
      "byteOffset": 3603656,
      "target": 34962
    },
    {
      "buffer": 0,
      "byteLength": 525496,
      "byteOffset": 4391900,
      "target": 34962
    },
    {
      "buffer": 0,
      "byteLength": 624180,
      "byteOffset": 4917396,
      "target": 34963
    },
    {
      "buffer": 0,
      "byteLength": 788016,
      "byteOffset": 5541576,
      "target": 34962
    },
    {
      "buffer": 0,
      "byteLength": 788016,
      "byteOffset": 6329592,
      "target": 34962
    },
    {
      "buffer": 0,
      "byteLength": 525344,
      "byteOffset": 7117608,
      "target": 34962
    },
    {
      "buffer": 0,
      "byteLength": 536760,
      "byteOffset": 7642952,
      "target": 34963
    },
    {
      "buffer": 0,
      "byteLength": 787668,
      "byteOffset": 8179712,
      "target": 34962
    },
    {
      "buffer": 0,
      "byteLength": 787668,
      "byteOffset": 8967380,
      "target": 34962
    },
    {
      "buffer": 0,
      "byteLength": 525112,
      "byteOffset": 9755048,
      "target": 34962
    },
    {
      "buffer": 0,
      "byteLength": 463716,
      "byteOffset": 10280160,
      "target": 34963
    },
    {
      "buffer": 0,
      "byteLength": 787848,
      "byteOffset": 10743876,
      "target": 34962
    },
    {
      "buffer": 0,
      "byteLength": 787848,
      "byteOffset": 11531724,
      "target": 34962
    },
    {
      "buffer": 0,
      "byteLength": 525232,
      "byteOffset": 12319572,
      "target": 34962
    },
    {
      "buffer": 0,
      "byteLength": 388404,
      "byteOffset": 12844804,
      "target": 34963
    },
    {
      "buffer": 0,
      "byteLength": 788184,
      "byteOffset": 13233208,
      "target": 34962
    },
    {
      "buffer": 0,
      "byteLength": 788184,
      "byteOffset": 14021392,
      "target": 34962
    },
    {
      "buffer": 0,
      "byteLength": 525456,
      "byteOffset": 14809576,
      "target": 34962
    },
    {
      "buffer": 0,
      "byteLength": 298932,
      "byteOffset": 15335032,
      "target": 34963
    },
    {
      "buffer": 0,
      "byteLength": 202452,
      "byteOffset": 15633964,
      "target": 34962
    },
    {
      "buffer": 0,
      "byteLength": 202452,
      "byteOffset": 15836416,
      "target": 34962
    },
    {
      "buffer": 0,
      "byteLength": 134968,
      "byteOffset": 16038868,
      "target": 34962
    },
    {
      "buffer": 0,
      "byteLength": 35912,
      "byteOffset": 16173836,
      "target": 34963
    },
    {
      "buffer": 0,
      "byteLength": 789588,
      "byteOffset": 16209748,
      "target": 34962
    },
    {
      "buffer": 0,
      "byteLength": 789588,
      "byteOffset": 16999336,
      "target": 34962
    },
    {
      "buffer": 0,
      "byteLength": 526392,
      "byteOffset": 17788924,
      "target": 34962
    },
    {
      "buffer": 0,
      "byteLength": 1068708,
      "byteOffset": 18315316,
      "target": 34963
    },
    {
      "buffer": 0,
      "byteLength": 789072,
      "byteOffset": 19384024,
      "target": 34962
    },
    {
      "buffer": 0,
      "byteLength": 789072,
      "byteOffset": 20173096,
      "target": 34962
    },
    {
      "buffer": 0,
      "byteLength": 526048,
      "byteOffset": 20962168,
      "target": 34962
    },
    {
      "buffer": 0,
      "byteLength": 1039704,
      "byteOffset": 21488216,
      "target": 34963
    },
    {
      "buffer": 0,
      "byteLength": 788496,
      "byteOffset": 22527920,
      "target": 34962
    },
    {
      "buffer": 0,
      "byteLength": 788496,
      "byteOffset": 23316416,
      "target": 34962
    },
    {
      "buffer": 0,
      "byteLength": 525664,
      "byteOffset": 24104912,
      "target": 34962
    },
    {
      "buffer": 0,
      "byteLength": 1009992,
      "byteOffset": 24630576,
      "target": 34963
    },
    {
      "buffer": 0,
      "byteLength": 788580,
      "byteOffset": 25640568,
      "target": 34962
    },
    {
      "buffer": 0,
      "byteLength": 788580,
      "byteOffset": 26429148,
      "target": 34962
    },
    {
      "buffer": 0,
      "byteLength": 525720,
      "byteOffset": 27217728,
      "target": 34962
    },
    {
      "buffer": 0,
      "byteLength": 985512,
      "byteOffset": 27743448,
      "target": 34963
    },
    {
      "buffer": 0,
      "byteLength": 788604,
      "byteOffset": 28728960,
      "target": 34962
    },
    {
      "buffer": 0,
      "byteLength": 788604,
      "byteOffset": 29517564,
      "target": 34962
    },
    {
      "buffer": 0,
      "byteLength": 525736,
      "byteOffset": 30306168,
      "target": 34962
    },
    {
      "buffer": 0,
      "byteLength": 941400,
      "byteOffset": 30831904,
      "target": 34963
    },
    {
      "buffer": 0,
      "byteLength": 788064,
      "byteOffset": 31773304,
      "target": 34962
    },
    {
      "buffer": 0,
      "byteLength": 788064,
      "byteOffset": 32561368,
      "target": 34962
    },
    {
      "buffer": 0,
      "byteLength": 525376,
      "byteOffset": 33349432,
      "target": 34962
    },
    {
      "buffer": 0,
      "byteLength": 894108,
      "byteOffset": 33874808,
      "target": 34963
    },
    {
      "buffer": 0,
      "byteLength": 788184,
      "byteOffset": 34768916,
      "target": 34962
    },
    {
      "buffer": 0,
      "byteLength": 788184,
      "byteOffset": 35557100,
      "target": 34962
    },
    {
      "buffer": 0,
      "byteLength": 525456,
      "byteOffset": 36345284,
      "target": 34962
    },
    {
      "buffer": 0,
      "byteLength": 843576,
      "byteOffset": 36870740,
      "target": 34963
    },
    {
      "buffer": 0,
      "byteLength": 788076,
      "byteOffset": 37714316,
      "target": 34962
    },
    {
      "buffer": 0,
      "byteLength": 788076,
      "byteOffset": 38502392,
      "target": 34962
    },
    {
      "buffer": 0,
      "byteLength": 525384,
      "byteOffset": 39290468,
      "target": 34962
    },
    {
      "buffer": 0,
      "byteLength": 788064,
      "byteOffset": 39815852,
      "target": 34963
    }
  ],
  "samplers": [
    {
      "magFilter": 9729,
      "minFilter": 9987
    }
  ],
  "buffers": [
    {
      "uri": "test_data.bin",
      "byteLength": 40603916
    }
  ]
}